<svg width="520" height="180" viewBox="0 0 520 180" fill="none" xmlns="http://www.w3.org/2000/svg">
  <path d="M58 126C55 91 58 59 66 29C69 18 76 18 79 30C91 75 105 108 130 128" stroke="#111111" stroke-width="6" stroke-linecap="round" stroke-linejoin="round"/>
  <path d="M79 30C107 79 141 112 184 130" stroke="#111111" stroke-width="6" stroke-linecap="round" stroke-linejoin="round"/>
  <path d="M181 130C200 98 222 72 250 70C274 68 256 126 278 128C300 130 324 93 338 58" stroke="#111111" stroke-width="6" stroke-linecap="round" stroke-linejoin="round"/>
  <path d="M340 37C342 26 349 20 359 22C371 24 375 36 367 46C357 58 338 51 340 37Z" stroke="#111111" stroke-width="5" stroke-linecap="round" stroke-linejoin="round"/>
  <path d="M338 58C349 91 351 114 347 128C366 94 391 70 419 70C444 70 423 126 449 129" stroke="#111111" stroke-width="6" stroke-linecap="round" stroke-linejoin="round"/>
  <path d="M144 145C219 110 303 78 468 35" stroke="#111111" stroke-width="4.5" stroke-linecap="round" stroke-linejoin="round"/>
</svg>
