<svg width="220" height="90" viewBox="0 0 220 90" fill="none" xmlns="http://www.w3.org/2000/svg">
  <rect width="220" height="90" fill="white" fill-opacity="0.01"/>
  <path d="M27 53C35 40 43 28 54 18C58 14 64 13 66 18C67 23 59 31 58 39C57 46 64 51 73 49C87 45 96 28 101 17" stroke="#1F2937" stroke-width="3.2" stroke-linecap="round" stroke-linejoin="round"/>
  <path d="M101 17C104 28 106 38 109 49C111 57 116 57 119 49C122 41 125 32 129 24" stroke="#1F2937" stroke-width="3.2" stroke-linecap="round" stroke-linejoin="round"/>
  <path d="M136 24C140 18 149 17 153 23C157 29 154 38 147 40C142 42 138 46 140 51C142 56 150 57 158 55" stroke="#1F2937" stroke-width="3.2" stroke-linecap="round" stroke-linejoin="round"/>
  <path d="M165 18C163 24 161 33 162 41C163 49 170 52 176 45C181 39 183 31 186 23" stroke="#1F2937" stroke-width="3.2" stroke-linecap="round" stroke-linejoin="round"/>
  <path d="M24 69C54 74 94 74 136 71C165 69 187 68 208 71" stroke="#1F2937" stroke-width="2.8" stroke-linecap="round"/>
</svg>
