<svg width="220" height="90" viewBox="0 0 220 90" fill="none" xmlns="http://www.w3.org/2000/svg">
  <rect width="220" height="90" fill="white" fill-opacity="0.01"/>
  <path d="M18 54C28 42 38 31 49 25C58 20 64 22 68 31C73 43 78 52 86 58" stroke="#111827" stroke-width="4" stroke-linecap="round" stroke-linejoin="round"/>
  <path d="M89 57C96 48 102 38 108 27C112 20 117 18 121 23C124 28 124 38 127 47C129 56 133 61 139 60C146 59 151 48 154 35" stroke="#111827" stroke-width="4" stroke-linecap="round" stroke-linejoin="round"/>
  <path d="M158 34C162 42 165 50 167 58" stroke="#111827" stroke-width="4" stroke-linecap="round"/>
  <path d="M171 29C176 24 181 24 185 28C189 32 188 39 184 43C180 47 176 50 174 55C172 60 176 63 184 63C192 63 199 61 204 58" stroke="#111827" stroke-width="4" stroke-linecap="round" stroke-linejoin="round"/>
</svg>
